<svg width="8" height="69" viewBox="0 0 8 69" fill="none" xmlns="http://www.w3.org/2000/svg">
<g opacity="0.9">
<path d="M3.53214 3.41003C3.92266 3.40762 4.53214 3.41003 4.53214 3.41003V65.4102H3.53214V3.41003Z" fill="url(#paint0_linear_11_320)"/>
<path d="M5.53214 64.9102C5.53214 65.7386 4.86057 66.4102 4.03214 66.4102C3.20371 66.4102 2.53214 65.7386 2.53214 64.9102C2.53214 64.0818 3.20371 63.4102 4.03214 63.4102C4.86057 63.4102 5.53214 64.0818 5.53214 64.9102Z" fill="url(#paint1_linear_11_320)"/>
<path d="M5.53214 3.91003C5.53214 4.73846 4.86057 5.41003 4.03214 5.41003C3.20371 5.41003 2.53214 4.73846 2.53214 3.91003C2.53214 3.08161 3.20371 2.41003 4.03214 2.41003C4.86057 2.41003 5.53214 3.08161 5.53214 3.91003Z" fill="url(#paint2_linear_11_320)"/>
<path fill-rule="evenodd" clip-rule="evenodd" d="M3.96902 6.8765L6.90728 3.93825L3.96902 1L1.03077 3.93825L3.96902 6.8765ZM7.61438 4.64536C8.00491 4.25483 8.00491 3.62167 7.61439 3.23115L4.67613 0.292893C4.28561 -0.0976308 3.65244 -0.0976313 3.26192 0.292893L0.323664 3.23115C-0.0668598 3.62167 -0.0668617 4.25483 0.323663 4.64536L3.26192 7.58361C3.65244 7.97413 4.28561 7.97413 4.67613 7.58361L7.61438 4.64536Z" fill="url(#paint3_linear_11_320)"/>
<path fill-rule="evenodd" clip-rule="evenodd" d="M3.93825 67.8445L6.8765 64.9062L3.93825 61.968L1 64.9062L3.93825 67.8445ZM7.58361 65.6133C7.97414 65.2228 7.97414 64.5897 7.58361 64.1991L4.64536 61.2609C4.25484 60.8704 3.62167 60.8704 3.23115 61.2609L0.292893 64.1991C-0.0976311 64.5897 -0.0976311 65.2228 0.292893 65.6133L3.23114 68.5516C3.62167 68.9421 4.25483 68.9421 4.64536 68.5516L7.58361 65.6133Z" fill="url(#paint4_linear_11_320)"/>
</g>
<defs>
<linearGradient id="paint0_linear_11_320" x1="3.95364" y1="0" x2="3.95364" y2="168.844" gradientUnits="userSpaceOnUse">
<stop stop-color="#48AEDE"/>
<stop offset="0.0001" stop-color="#3DB1EE"/>
</linearGradient>
<linearGradient id="paint1_linear_11_320" x1="3.95364" y1="0" x2="3.95364" y2="168.844" gradientUnits="userSpaceOnUse">
<stop stop-color="#48AEDE"/>
<stop offset="0.0001" stop-color="#3DB1EE"/>
</linearGradient>
<linearGradient id="paint2_linear_11_320" x1="3.95364" y1="0" x2="3.95364" y2="168.844" gradientUnits="userSpaceOnUse">
<stop stop-color="#48AEDE"/>
<stop offset="0.0001" stop-color="#3DB1EE"/>
</linearGradient>
<linearGradient id="paint3_linear_11_320" x1="3.95364" y1="0" x2="3.95364" y2="168.844" gradientUnits="userSpaceOnUse">
<stop stop-color="#48AEDE"/>
<stop offset="0.0001" stop-color="#3DB1EE"/>
</linearGradient>
<linearGradient id="paint4_linear_11_320" x1="3.95364" y1="0" x2="3.95364" y2="168.844" gradientUnits="userSpaceOnUse">
<stop stop-color="#48AEDE"/>
<stop offset="0.0001" stop-color="#3DB1EE"/>
</linearGradient>
</defs>
</svg>
