<svg width="27" height="20" viewBox="0 0 27 20" fill="none" xmlns="http://www.w3.org/2000/svg">
<path d="M19.062 0H7.938C5.778 0 3.78 0.916442 2.322 2.40566C0.918 3.89488 0 5.95687 0 8.1907C0 12.7156 3.564 16.3814 7.938 16.3814H8.586C8.316 17.4124 7.992 18.4434 7.56 19.4171C7.398 19.7608 7.776 20.1617 8.1 19.9326C9.774 18.9589 11.286 17.7561 12.636 16.3814H19.062C23.436 16.3814 27 12.7156 27 8.1907C27 3.66577 23.436 0 19.062 0ZM8.478 9.90903C7.506 9.90903 6.75 9.10714 6.75 8.13342C6.75 7.1597 7.56 6.30054 8.478 6.30054C9.45 6.30054 10.206 7.10242 10.206 8.07614C10.206 9.04986 9.45 9.90903 8.478 9.90903ZM13.446 9.90903C12.474 9.90903 11.718 9.10714 11.718 8.13342C11.718 7.1597 12.528 6.35782 13.446 6.35782C14.418 6.35782 15.174 7.1597 15.174 8.13342C15.174 9.10714 14.418 9.90903 13.446 9.90903ZM18.414 9.90903C17.442 9.90903 16.686 9.10714 16.686 8.13342C16.686 7.1597 17.442 6.35782 18.414 6.35782C19.386 6.35782 20.142 7.1597 20.142 8.13342C20.142 9.10714 19.386 9.90903 18.414 9.90903Z" fill="#ADEFFF"/>
</svg>
