<svg width="28" height="28" viewBox="0 0 28 28" fill="none" xmlns="http://www.w3.org/2000/svg">
<path d="M13.3652 0.671994L0.671902 13.3653C0.309236 13.728 0.309236 14.272 0.671902 14.6347L13.3652 27.328C13.7279 27.6907 14.2719 27.6907 14.6346 27.328L27.3279 14.6347C27.6906 14.272 27.6906 13.728 27.3279 13.3653L14.6346 0.671994C14.2719 0.309327 13.7279 0.309327 13.3652 0.671994ZM14.5439 23.4747H13.4559C13.0026 23.4747 12.5492 23.2933 12.1866 22.976L11.8692 22.6587C11.4159 22.2053 11.1892 21.5253 11.2799 20.8907L11.4159 19.7573C11.5066 19.2133 11.6879 18.6693 12.0052 18.216C12.3226 17.7627 12.7306 17.4 13.2292 17.128C13.4559 16.992 13.7279 16.9467 13.9999 16.9467C14.2719 16.9467 14.5439 16.992 14.7706 17.128C15.7679 17.672 16.4026 18.624 16.5386 19.7573L16.6746 20.8907C16.7652 21.5253 16.5386 22.2053 16.0852 22.6587L15.8132 22.976C15.4506 23.2933 14.9972 23.4747 14.5439 23.4747ZM19.5759 15.1787C18.4426 14.0907 17.5812 12.7307 17.1279 11.1893L16.4932 9.01333C16.3572 8.55999 15.9492 8.24266 15.4506 8.24266H12.5039C12.0052 8.24266 11.5972 8.55999 11.4612 9.01333L10.8266 11.1893C10.3732 12.6853 9.55723 14.0907 8.37857 15.1787L6.33857 17.128L3.5279 14.3173C3.34657 14.136 3.34657 13.864 3.5279 13.6827L13.6826 3.52799C13.8639 3.34666 14.1359 3.34666 14.3172 3.52799L24.4266 13.6827C24.6079 13.864 24.6079 14.136 24.4266 14.3173L21.6159 17.128L19.5759 15.1787Z" fill="#ADEFFF"/>
</svg>
