<svg width="19" height="17" viewBox="0 0 19 17" fill="none" xmlns="http://www.w3.org/2000/svg">
<path fill-rule="evenodd" clip-rule="evenodd" d="M12.2289 3.04041C11.9896 3.01371 11.7464 3 11.5 3C7.91015 3 5 5.91015 5 9.5C5 11.2264 5.67307 12.7957 6.77112 13.9596C7.13877 14.3493 7.55406 14.6936 8.00768 14.9831C9.01638 15.6269 10.2146 16 11.5 16C15.0899 16 18 13.0899 18 9.5C18 6.71659 16.2505 4.3418 13.7911 3.4153C13.2963 3.22888 12.7727 3.1011 12.2289 3.04041ZM10.9923 2.01691C9.98362 1.3731 8.78538 1 7.5 1C3.91015 1 1 3.91015 1 7.5C1 10.2834 2.74951 12.6582 5.20887 13.5847C4.44424 12.4095 4 11.0066 4 9.5C4 5.52848 7.08694 2.27796 10.9923 2.01691ZM6.29985 14.9045C2.72821 14.3301 0 11.2336 0 7.5C0 3.35786 3.35786 0 7.5 0C9.5191 0 11.3518 0.797864 12.7002 2.09551C16.2718 2.66994 19 5.76637 19 9.5C19 13.6421 15.6421 17 11.5 17C9.4809 17 7.64816 16.2021 6.29985 14.9045Z" fill="#41B7FF"/>
</svg>
