<svg width="18" height="24" viewBox="0 0 18 24" fill="none" xmlns="http://www.w3.org/2000/svg">
<path fill-rule="evenodd" clip-rule="evenodd" d="M9.45 0C4.5 0 1.8 2.7 1.8 7.2C1.8 11.7 5.4 13.05 6.75 13.05C8.1 13.05 10.35 12.6 10.35 9H9C9 10.0495 8.88779 10.35 7.65 10.35C6.3 10.35 5.4 9 5.4 7.65C5.4 6.3 6.3 4.5 9.45 4.5C12.6 4.5 13.5 6.75 13.5 8.55C13.5 9.99 11.85 12.6 10.8 13.5C10.71 13.5771 10.6057 13.6642 10.4902 13.7606L10.4898 13.7609L10.4897 13.761C9.2572 14.7895 6.75 16.8817 6.75 19.35C6.75 21.842 8.66134 23.1643 8.96076 23.3714L8.9608 23.3714C8.98576 23.3887 8.99951 23.3982 9 23.4L8.98536 23.3474C8.74011 22.4663 8.11814 20.2319 9 19.35C10.0095 18.3405 11.1709 17.4328 12.3166 16.5374C15.2081 14.2774 18 12.0953 18 8.55C18 3.86246 14.1807 0 9.45 0ZM1.35 18C2.09558 18 2.7 17.3956 2.7 16.65C2.7 15.9044 2.09558 15.3 1.35 15.3C0.604416 15.3 0 15.9044 0 16.65C0 17.3956 0.604416 18 1.35 18ZM4.5 20.7C4.5 21.1971 4.09706 21.6 3.6 21.6C3.10294 21.6 2.7 21.1971 2.7 20.7C2.7 20.2029 3.10294 19.8 3.6 19.8C4.09706 19.8 4.5 20.2029 4.5 20.7ZM16.65 19.8C17.3956 19.8 18 19.1956 18 18.45C18 17.7044 17.3956 17.1 16.65 17.1C15.9044 17.1 15.3 17.7044 15.3 18.45C15.3 19.1956 15.9044 19.8 16.65 19.8Z" fill="#02CBFD"/>
</svg>
