<svg width="23" height="20" viewBox="0 0 23 20" fill="none" xmlns="http://www.w3.org/2000/svg">
<path fill-rule="evenodd" clip-rule="evenodd" d="M0.5 19.1053H22L17.8509 16.4649L14.4561 4.39474C14.5819 4.01754 14.9842 3.26316 15.5877 3.26316C16.1912 3.26316 18.6053 4.26901 19.7368 4.77193L16.7193 1H10.6842L4.64912 16.4649L0.5 19.1053ZM9.92982 15.3333L10.6842 6.2807L7.06987 14.2609L9.92982 15.3333Z" fill="#02CBFD"/>
<path d="M22 19.1053V19.1553H22.1717L22.0268 19.0631L22 19.1053ZM0.5 19.1053L0.473156 19.0631L0.328297 19.1553H0.5V19.1053ZM17.8509 16.4649L17.8027 16.4784L17.8079 16.4968L17.824 16.5071L17.8509 16.4649ZM14.4561 4.39474L14.4087 4.37893L14.4039 4.39349L14.408 4.40827L14.4561 4.39474ZM19.7368 4.77193L19.7165 4.81762L19.7759 4.74069L19.7368 4.77193ZM16.7193 1L16.7583 0.968765L16.7433 0.95H16.7193V1ZM10.6842 1V0.95H10.65L10.6376 0.981823L10.6842 1ZM4.64912 16.4649L4.67597 16.5071L4.68976 16.4983L4.6957 16.4831L4.64912 16.4649ZM10.6842 6.2807L10.734 6.28485L10.6387 6.26007L10.6842 6.2807ZM9.92982 15.3333L9.91227 15.3801L9.97416 15.4034L9.97965 15.3375L9.92982 15.3333ZM7.06987 14.2609L7.02433 14.2402L7.00228 14.2889L7.05232 14.3077L7.06987 14.2609ZM22 19.0553H0.5V19.1553H22V19.0553ZM17.824 16.5071L21.9732 19.1474L22.0268 19.0631L17.8777 16.4227L17.824 16.5071ZM14.408 4.40827L17.8027 16.4784L17.899 16.4514L14.5043 4.3812L14.408 4.40827ZM15.5877 3.21316C15.2639 3.21316 14.9996 3.41537 14.804 3.65595C14.6076 3.89736 14.473 4.18594 14.4087 4.37893L14.5036 4.41055C14.565 4.22634 14.6944 3.94913 14.8816 3.71905C15.0694 3.48814 15.308 3.31316 15.5877 3.31316V3.21316ZM19.7571 4.72624C19.1908 4.47453 18.3036 4.09698 17.4821 3.78226C17.0715 3.62492 16.6767 3.48304 16.3463 3.38043C16.0184 3.27856 15.7473 3.21316 15.5877 3.21316V3.31316C15.7299 3.31316 15.9869 3.37349 16.3167 3.47593C16.6441 3.57763 17.0366 3.71865 17.4464 3.87564C18.2657 4.18957 19.1513 4.5664 19.7165 4.81762L19.7571 4.72624ZM16.6803 1.03123L19.6978 4.80316L19.7759 4.74069L16.7583 0.968765L16.6803 1.03123ZM10.6842 1.05H16.7193V0.95H10.6842V1.05ZM4.6957 16.4831L10.7308 1.01818L10.6376 0.981823L4.60254 16.4467L4.6957 16.4831ZM0.526844 19.1474L4.67597 16.5071L4.62228 16.4227L0.473156 19.0631L0.526844 19.1474ZM10.6344 6.27655L9.88 15.3292L9.97965 15.3375L10.734 6.28485L10.6344 6.27655ZM7.11542 14.2815L10.7298 6.30133L10.6387 6.26007L7.02433 14.2402L7.11542 14.2815ZM9.94738 15.2865L7.08743 14.214L7.05232 14.3077L9.91227 15.3801L9.94738 15.2865ZM6.89472 14.2486L7.05232 14.3077L7.08743 14.214L6.92984 14.1549L6.89472 14.2486Z" fill="#FF0000"/>
</svg>
