<svg width="23" height="25" viewBox="0 0 23 25" fill="none" xmlns="http://www.w3.org/2000/svg">
<path fill-rule="evenodd" clip-rule="evenodd" d="M2.66248 1.27571C2.66248 1.8039 2.21476 2.23208 1.66248 2.23208C1.11019 2.23208 0.662476 1.8039 0.662476 1.27571C0.662476 0.747518 1.11019 0.319336 1.66248 0.319336C2.21476 0.319336 2.66248 0.747518 2.66248 1.27571ZM3.66248 5.07131C3.66248 5.5995 3.21476 6.02768 2.66248 6.02768C2.11019 6.02768 1.66248 5.5995 1.66248 5.07131C1.66248 4.54312 2.11019 4.11494 2.66248 4.11494C3.21476 4.11494 3.66248 4.54312 3.66248 5.07131ZM4.66248 8.77725C5.21476 8.77725 5.66248 8.34906 5.66248 7.82088C5.66248 7.29269 5.21476 6.8645 4.66248 6.8645C4.11019 6.8645 3.66248 7.29269 3.66248 7.82088C3.66248 8.34906 4.11019 8.77725 4.66248 8.77725ZM9.63123 10.7199C9.63123 11.2481 9.18351 11.6762 8.63123 11.6762C8.07894 11.6762 7.63123 11.2481 7.63123 10.7199C7.63123 10.1917 8.07894 9.7635 8.63123 9.7635C9.18351 9.7635 9.63123 10.1917 9.63123 10.7199ZM14.6937 11.6762C15.246 11.6762 15.6937 11.2481 15.6937 10.7199C15.6937 10.1917 15.246 9.7635 14.6937 9.7635C14.1414 9.7635 13.6937 10.1917 13.6937 10.7199C13.6937 11.2481 14.1414 11.6762 14.6937 11.6762ZM18.725 7.82088C18.725 8.34906 18.2773 8.77725 17.725 8.77725C17.1727 8.77725 16.725 8.34906 16.725 7.82088C16.725 7.29269 17.1727 6.8645 17.725 6.8645C18.2773 6.8645 18.725 7.29269 18.725 7.82088ZM20.35 6.02768C20.9023 6.02768 21.35 5.5995 21.35 5.07131C21.35 4.54312 20.9023 4.11494 20.35 4.11494C19.7977 4.11494 19.35 4.54312 19.35 5.07131C19.35 5.5995 19.7977 6.02768 20.35 6.02768ZM22.35 1.27571C22.35 1.8039 21.9023 2.23208 21.35 2.23208C20.7977 2.23208 20.35 1.8039 20.35 1.27571C20.35 0.747518 20.7977 0.319336 21.35 0.319336C21.9023 0.319336 22.35 0.747518 22.35 1.27571ZM4.66248 17.8071L4.66255 17.8071L4.66248 17.8072L11.4573 24.3056L18.2521 17.8072H18.2519L18.2521 17.8071L11.4573 11.3087L4.66248 17.8071ZM16.8379 17.8071L16.8377 17.8072H11.4574V12.6614L16.8379 17.8071Z" fill="#02CBFD"/>
</svg>
