<svg width="16" height="16" viewBox="0 0 16 16" fill="none" xmlns="http://www.w3.org/2000/svg">
<path d="M10.6667 5.33333V2C10.6667 0.895431 9.77124 0 8.66667 0H7.33333C6.22876 0 5.33333 0.895432 5.33333 2V5.33333H2C0.895431 5.33333 0 6.22877 0 7.33333V8.66667C0 9.77124 0.895432 10.6667 2 10.6667H5.33333V14C5.33333 15.1046 6.22877 16 7.33333 16H8.66667C9.77124 16 10.6667 15.1046 10.6667 14V10.6667H14C15.1046 10.6667 16 9.77124 16 8.66667V7.33333C16 6.22876 15.1046 5.33333 14 5.33333H10.6667Z" fill="black"/>
</svg>
