<svg width="889" height="149" viewBox="0 0 889 149" fill="none" xmlns="http://www.w3.org/2000/svg">
<g filter="url(#filter0_d_148_45)">
<rect width="38.8909" height="38.8909" transform="matrix(0.68778 0.72592 -0.68778 0.72592 41.6582 45.8252)" stroke="#01CBFD" stroke-linejoin="round" shape-rendering="crispEdges"/>
</g>
<g filter="url(#filter1_d_148_45)">
<path d="M14.5923 78.7143L10.1794 74.0567L14.5923 69.3992" stroke="#01CBFD" stroke-linecap="round" stroke-linejoin="round"/>
</g>
<path fill-rule="evenodd" clip-rule="evenodd" d="M67.5917 69.7434C67.4017 69.543 67.4017 69.218 67.5917 69.0175C67.7816 68.8171 68.0895 68.8171 68.2794 69.0175L72.6625 73.6437H889V74.6437H72.5839V74.5155L68.2794 79.0586C68.0895 79.2591 67.7816 79.2591 67.5917 79.0586C67.4017 78.8582 67.4017 78.5331 67.5917 78.3327L71.6606 74.0381L67.5917 69.7434Z" fill="url(#paint0_linear_148_45)"/>
<g filter="url(#filter2_di_148_45)">
<rect width="29.9336" height="29.9336" transform="matrix(0.68778 0.72592 -0.68778 0.72592 41.6758 51.6876)" fill="#010302"/>
</g>
<g filter="url(#filter3_if_148_45)">
<path fill-rule="evenodd" clip-rule="evenodd" d="M2.96944 74.8741C2.58959 74.4732 2.58959 73.8232 2.96944 73.4223L70.6255 2.01438C70.8025 1.82764 70.8025 1.52487 70.6255 1.33813C70.4486 1.15139 70.1617 1.15139 69.9848 1.33813L1.68798 73.4223C1.30813 73.8232 1.30813 74.4732 1.68798 74.8741L69.9848 146.958C70.1617 147.145 70.4486 147.145 70.6255 146.958C70.8025 146.772 70.8025 146.469 70.6255 146.282L2.96944 74.8741Z" fill="url(#paint1_linear_148_45)"/>
</g>
<g filter="url(#filter4_i_148_45)">
<path d="M5.68787 75.1208L71.9309 145.037C72.5436 145.684 73.5913 145.226 73.5913 144.311V4.47844C73.5913 3.56384 72.5436 3.1058 71.9309 3.75253L5.68786 73.6689C5.30801 74.0699 5.30802 74.7199 5.68787 75.1208Z" fill="url(#paint2_linear_148_45)"/>
</g>
<path fill-rule="evenodd" clip-rule="evenodd" d="M41.277 62.0731C36.7917 62.0731 34.3451 64.7731 34.3451 69.2731C34.3451 73.7731 37.6072 75.1231 38.8304 75.1231C40.0537 75.1231 42.0925 74.6731 42.0925 71.0731H40.8692C40.8692 72.1226 40.7675 72.4231 39.646 72.4231C38.4227 72.4231 37.6072 71.0731 37.6072 69.7231C37.6072 68.3731 38.4227 66.5731 41.277 66.5731C44.1313 66.5731 44.9468 68.8231 44.9468 70.6231C44.9468 72.0631 43.4517 74.6731 42.5002 75.5731C42.4187 75.6502 42.3243 75.7372 42.2196 75.8336L42.2192 75.834L42.2191 75.8341C41.1023 76.8626 38.8304 78.9548 38.8304 81.4231C38.8304 83.9152 40.5623 85.2374 40.8337 85.4445L40.8337 85.4446C40.8563 85.4618 40.8688 85.4713 40.8692 85.4731L40.856 85.4205C40.6337 84.5394 40.0701 82.305 40.8692 81.4231C41.784 80.4136 42.8363 79.5059 43.8744 78.6105C46.4946 76.3505 49.0243 74.1684 49.0243 70.6231C49.0243 65.9356 45.5636 62.0731 41.277 62.0731ZM33.9376 80.0731C34.6132 80.0731 35.1609 79.4687 35.1609 78.7231C35.1609 77.9775 34.6132 77.3731 33.9376 77.3731C33.262 77.3731 32.7144 77.9775 32.7144 78.7231C32.7144 79.4687 33.262 80.0731 33.9376 80.0731ZM36.792 82.7731C36.792 83.2702 36.4269 83.6731 35.9765 83.6731C35.5261 83.6731 35.161 83.2702 35.161 82.7731C35.161 82.2761 35.5261 81.8731 35.9765 81.8731C36.4269 81.8731 36.792 82.2761 36.792 82.7731ZM47.8011 81.8731C48.4766 81.8731 49.0243 81.2687 49.0243 80.5231C49.0243 79.7775 48.4766 79.1731 47.8011 79.1731C47.1255 79.1731 46.5778 79.7775 46.5778 80.5231C46.5778 81.2687 47.1255 81.8731 47.8011 81.8731Z" fill="#02CBFD"/>
<rect opacity="0.4" width="38.9765" height="38.9765" transform="matrix(0.68778 0.72592 -0.68778 0.72592 45.0234 49.7749)" stroke="black" stroke-linejoin="round"/>
<rect x="73.4897" y="77.5096" width="529.176" height="0.95637" fill="url(#paint3_linear_148_45)"/>
<defs>
<filter id="filter0_d_148_45" x="12.4233" y="44.3119" width="58.4697" height="61.4899" filterUnits="userSpaceOnUse" color-interpolation-filters="sRGB">
<feFlood flood-opacity="0" result="BackgroundImageFix"/>
<feColorMatrix in="SourceAlpha" type="matrix" values="0 0 0 0 0 0 0 0 0 0 0 0 0 0 0 0 0 0 127 0" result="hardAlpha"/>
<feOffset dy="1"/>
<feGaussianBlur stdDeviation="1"/>
<feComposite in2="hardAlpha" operator="out"/>
<feColorMatrix type="matrix" values="0 0 0 0 0 0 0 0 0 0 0 0 0 0 0 0 0 0 0.25 0"/>
<feBlend mode="normal" in2="BackgroundImageFix" result="effect1_dropShadow_148_45"/>
<feBlend mode="normal" in="SourceGraphic" in2="effect1_dropShadow_148_45" result="shape"/>
</filter>
<filter id="filter1_d_148_45" x="7.69287" y="67.8859" width="9.38574" height="14.3418" filterUnits="userSpaceOnUse" color-interpolation-filters="sRGB">
<feFlood flood-opacity="0" result="BackgroundImageFix"/>
<feColorMatrix in="SourceAlpha" type="matrix" values="0 0 0 0 0 0 0 0 0 0 0 0 0 0 0 0 0 0 127 0" result="hardAlpha"/>
<feOffset dy="1"/>
<feGaussianBlur stdDeviation="1"/>
<feComposite in2="hardAlpha" operator="out"/>
<feColorMatrix type="matrix" values="0 0 0 0 0 0 0 0 0 0 0 0 0 0 0 0 0 0 0.25 0"/>
<feBlend mode="normal" in2="BackgroundImageFix" result="effect1_dropShadow_148_45"/>
<feBlend mode="normal" in="SourceGraphic" in2="effect1_dropShadow_148_45" result="shape"/>
</filter>
<filter id="filter2_di_148_45" x="19.0879" y="50.6876" width="45.1758" height="48.4588" filterUnits="userSpaceOnUse" color-interpolation-filters="sRGB">
<feFlood flood-opacity="0" result="BackgroundImageFix"/>
<feColorMatrix in="SourceAlpha" type="matrix" values="0 0 0 0 0 0 0 0 0 0 0 0 0 0 0 0 0 0 127 0" result="hardAlpha"/>
<feOffset dy="1"/>
<feGaussianBlur stdDeviation="1"/>
<feComposite in2="hardAlpha" operator="out"/>
<feColorMatrix type="matrix" values="0 0 0 0 0 0 0 0 0 0 0 0 0 0 0 0 0 0 0.25 0"/>
<feBlend mode="normal" in2="BackgroundImageFix" result="effect1_dropShadow_148_45"/>
<feBlend mode="normal" in="SourceGraphic" in2="effect1_dropShadow_148_45" result="shape"/>
<feColorMatrix in="SourceAlpha" type="matrix" values="0 0 0 0 0 0 0 0 0 0 0 0 0 0 0 0 0 0 127 0" result="hardAlpha"/>
<feOffset dy="4"/>
<feGaussianBlur stdDeviation="2"/>
<feComposite in2="hardAlpha" operator="arithmetic" k2="-1" k3="1"/>
<feColorMatrix type="matrix" values="0 0 0 0 0 0 0 0 0 0 0 0 0 0 0 0 0 0 0.9 0"/>
<feBlend mode="normal" in2="shape" result="effect2_innerShadow_148_45"/>
</filter>
<filter id="filter3_if_148_45" x="0.40332" y="0.198059" width="72.355" height="147.9" filterUnits="userSpaceOnUse" color-interpolation-filters="sRGB">
<feFlood flood-opacity="0" result="BackgroundImageFix"/>
<feBlend mode="normal" in="SourceGraphic" in2="BackgroundImageFix" result="shape"/>
<feColorMatrix in="SourceAlpha" type="matrix" values="0 0 0 0 0 0 0 0 0 0 0 0 0 0 0 0 0 0 127 0" result="hardAlpha"/>
<feOffset dx="2"/>
<feGaussianBlur stdDeviation="1"/>
<feComposite in2="hardAlpha" operator="arithmetic" k2="-1" k3="1"/>
<feColorMatrix type="matrix" values="0 0 0 0 0.0196078 0 0 0 0 0.792157 0 0 0 0 1 0 0 0 0.05 0"/>
<feBlend mode="normal" in2="shape" result="effect1_innerShadow_148_45"/>
<feGaussianBlur stdDeviation="0.5" result="effect2_foregroundBlur_148_45"/>
</filter>
<filter id="filter4_i_148_45" x="5.40283" y="3.44977" width="70.1885" height="141.89" filterUnits="userSpaceOnUse" color-interpolation-filters="sRGB">
<feFlood flood-opacity="0" result="BackgroundImageFix"/>
<feBlend mode="normal" in="SourceGraphic" in2="BackgroundImageFix" result="shape"/>
<feColorMatrix in="SourceAlpha" type="matrix" values="0 0 0 0 0 0 0 0 0 0 0 0 0 0 0 0 0 0 127 0" result="hardAlpha"/>
<feOffset dx="2"/>
<feGaussianBlur stdDeviation="1"/>
<feComposite in2="hardAlpha" operator="arithmetic" k2="-1" k3="1"/>
<feColorMatrix type="matrix" values="0 0 0 0 0.0196078 0 0 0 0 0.792157 0 0 0 0 1 0 0 0 0.05 0"/>
<feBlend mode="normal" in2="shape" result="effect1_innerShadow_148_45"/>
</filter>
<linearGradient id="paint0_linear_148_45" x1="67.4492" y1="74.038" x2="886.282" y2="74.038" gradientUnits="userSpaceOnUse">
<stop offset="0.505" stop-color="#00CCFF"/>
<stop offset="1" stop-color="#00CCFF" stop-opacity="0"/>
</linearGradient>
<linearGradient id="paint1_linear_148_45" x1="2.82082" y1="74.0217" x2="70.1853" y2="74.0217" gradientUnits="userSpaceOnUse">
<stop stop-color="#05CAFF" stop-opacity="0.4"/>
<stop offset="1" stop-color="#05CAFF" stop-opacity="0"/>
</linearGradient>
<linearGradient id="paint2_linear_148_45" x1="6.80195" y1="74.2697" x2="73.4726" y2="74.2697" gradientUnits="userSpaceOnUse">
<stop stop-color="#05CAFF" stop-opacity="0.1"/>
<stop offset="1" stop-color="#05CAFF" stop-opacity="0"/>
</linearGradient>
<linearGradient id="paint3_linear_148_45" x1="73.4897" y1="77.9878" x2="602.665" y2="77.9878" gradientUnits="userSpaceOnUse">
<stop stop-opacity="0.4"/>
<stop offset="1" stop-opacity="0"/>
</linearGradient>
</defs>
</svg>
