<svg width="19" height="19" viewBox="0 0 19 19" fill="none" xmlns="http://www.w3.org/2000/svg">
<path fill-rule="evenodd" clip-rule="evenodd" d="M11.7489 8.17708L16.2175 2.78249L10.8206 7.25304L10.6337 6.75623L10.1836 6.96121L9.79688 0H9.20312L8.81625 6.96438L8.36148 6.75823L8.17708 7.25108L2.78249 2.78249L7.25304 8.17944L6.75623 8.36633L6.96122 8.81642L0 9.20312V9.79688L6.96437 10.1838L6.75823 10.6385L7.25109 10.8229L2.78249 16.2175L8.17944 11.747L8.36633 12.2438L8.81642 12.0388L9.20312 19H9.79688L10.1838 12.0356L10.6385 12.2418L10.8229 11.7489L16.2175 16.2175L11.747 10.8206L12.2438 10.6337L12.0388 10.1836L19 9.79688V9.20312L12.0356 8.81625L12.2418 8.36148L11.7489 8.17708ZM10.0937 8.3125H8.90625V8.90625H8.3125V10.0937H8.90622V10.0938H8.90625V10.6875H10.0937V10.0937H10.6875V8.90625H10.0938V8.90624H10.0937V8.3125Z" fill="#02CBFD"/>
</svg>
