<svg width="21" height="22" viewBox="0 0 21 22" fill="none" xmlns="http://www.w3.org/2000/svg">
<path fill-rule="evenodd" clip-rule="evenodd" d="M0 13.7366V11.3075C0.402776 11.2126 0.836206 11.161 1.28773 11.161C2.96025 11.161 4.38454 11.8695 4.9221 12.8609C5.46129 11.8695 6.82908 11.161 7.94409 11.161C10.7299 11.161 11.9467 12.5457 13.2075 13.9805C13.5164 14.332 13.8279 14.6865 14.1658 15.0244C13.7366 13.7366 12.5159 10.536 12.0195 9.44394C11.4761 8.08548 10.9609 6.38309 10.638 5.31632L10.638 5.31628C10.4507 4.6976 10.3282 4.29272 10.3024 4.29272H9.12453C9.03227 4.29272 8.94379 4.32937 8.87855 4.3946L7.94409 5.32906C7.78309 5.49007 7.56471 5.58052 7.33702 5.58052H4.84618C4.74474 5.58052 4.64746 5.54023 4.57573 5.4685L4.21725 5.11002C3.46101 4.35378 3.22821 3.21961 3.62541 2.22662C3.75988 1.89045 3.96123 1.58509 4.21725 1.32907L4.39816 1.14816C5.1333 0.413026 6.13035 3.05176e-05 7.17 3.05176e-05H7.8156C9.61969 3.05176e-05 12.1667 0.888205 13.1887 2.37485L20.0239 12.3169C20.6596 13.2416 21 14.3374 21 15.4595C21 17.5606 19.8129 19.4814 17.9336 20.421L17.2725 20.7516C16.6936 21.041 16.078 21.2447 15.4449 21.358L15.4537 21.4635H0V16.1657V13.7366Z" fill="#02CBFD"/>
</svg>
