<svg width="20" height="20" viewBox="0 0 20 20" fill="none" xmlns="http://www.w3.org/2000/svg">
<path fill-rule="evenodd" clip-rule="evenodd" d="M20 5.11929C20 12.2618 10 20 10 20C10 20 0 12.2618 0 5.11929C0 4.40472 0.833333 0 5.0641 0C9.29487 0 10 2.85711 10 2.85711C10 2.85711 10.7051 0 14.9359 0C19.1667 0 20 4.40472 20 5.11929ZM15.4167 7.50017C15.4167 11.6667 10 16.6668 10 16.6668C10 16.6668 4.58338 11.6667 4.58338 7.50017C4.58338 7.08333 4.58338 5 7.08338 5C9.58338 5 10 6.66667 10 6.66667C10 6.66667 10.4167 5 12.9167 5C15.4167 5 15.4167 7.08333 15.4167 7.50017Z" fill="#02CBFD"/>
</svg>
